PathFileType	4	(X/Y/Z)	S01_0010_Gait_markers.trc
DataRate	CameraRate	NumFrames	NumMarkers	Units	OrigDataRate	OrigDataStartFrame	OrigNumFrames
250.000000	250.000000	4	54	mm	250.000000	88	354
Frame#	Time	HEAD_ANT			R_HEAD			L_HEAD			C7			R_BACK			L_BACK			STERNUM			R_ACROMION			R_HUM_PROX			R_HUM_ANT			R_HUM_POST			R_ELBOW_LAT			R_ELBOW_MED			R_FOREARM			R_WIRST_LAT			R_WRITS_MED			R_HAND			L_ACROMION			L_HUM_PROX			L_HUM_ANT			L_HUM_POST			L_ELBOW_LAT			L_ELBOW_MED			L_FOREARM			L_WRIST_LAT			L_WIRST_MED			L_HAND			R_ILIAC			SACRUM			L_ILIAC			R_GTROCH			R_THIGH__1			R_THIGH_2			R_THIGH_3			R_THIGH_4			R_SHANK_1			R_SHANK_2			R_SHANK_3			R_SHANK_4			R_HEEL			R_FOOT_LAT			R_FOOT_MED			L_GTROCH			L_THIGH_1			L_THIGH_2			L_THIGH_3			L_THIGH_4			L_SHANK_1			L_SHANK_2			L_SHANK_3			L_SHANK_4			L_HEEL			L_FOOT_LAT			L_FOOT_MED			
		X1	Y1	Z1	X2	Y2	Z2	X3	Y3	Z3	X4	Y4	Z4	X5	Y5	Z5	X6	Y6	Z6	X7	Y7	Z7	X8	Y8	Z8	X9	Y9	Z9	X10	Y10	Z10	X11	Y11	Z11	X12	Y12	Z12	X13	Y13	Z13	X14	Y14	Z14	X15	Y15	Z15	X16	Y16	Z16	X17	Y17	Z17	X18	Y18	Z18	X19	Y19	Z19	X20	Y20	Z20	X21	Y21	Z21	X22	Y22	Z22	X23	Y23	Z23	X24	Y24	Z24	X25	Y25	Z25	X26	Y26	Z26	X27	Y27	Z27	X28	Y28	Z28	X29	Y29	Z29	X30	Y30	Z30	X31	Y31	Z31	X32	Y32	Z32	X33	Y33	Z33	X34	Y34	Z34	X35	Y35	Z35	X36	Y36	Z36	X37	Y37	Z37	X38	Y38	Z38	X39	Y39	Z39	X40	Y40	Z40	X41	Y41	Z41	X42	Y42	Z42	X43	Y43	Z43	X44	Y44	Z44	X45	Y45	Z45	X46	Y46	Z46	X47	Y47	Z47	X48	Y48	Z48	X49	Y49	Z49	X50	Y50	Z50	X51	Y51	Z51	X52	Y52	Z52	X53	Y53	Z53	X54	Y54	Z54	

89	0.352	584.41748046875	1748.371459960938	-256.6062622070309	528.1915893554688	1689.808227539062	-182.8694000244137	523.9320068359375	1707.378784179688	-330.0549621582027	390.1387329101562	1530.729736328125	-276.7639770507809	314.0260620117188	1334.395263671875	-215.951721191406	315.5997924804688	1342.219970703125	-357.2994384765622	564.5221557617188	1366.257568359375	-278.2504882812497	464.4245910644531	1476.014038085938	-104.5551528930661	416.8881530761719	1315.001342773438	-18.86953163146944	473.4815979003906	1226.476196289062	-17.81470870971652	352.3654479980469	1234.08349609375	-12.71280860900852	396.6773071289062	1125.040283203125	-8.582048416137445	371.3487854003906	1124.822509765625	-91.87324523925756	510.5077209472656	948.8212890625	-26.80566215515116	555.283447265625	892.0213623046875	-70.62293243408183	488.7433471679688	858.98779296875	-38.17101669311504	565.4102783203125	800.8106689453125	-25.34992599487287	472.5634460449219	1490.380004882812	-443.6154479980465	445.698974609375	1328.947387695313	-548.2200317382809	504.11962890625	1246.00830078125	-553.126525878906	383.1571350097656	1254.729125976563	-575.2282104492185	439.4169311523438	1148.015991210938	-587.6657104492185	387.1321716308594	1142.753173828125	-530.9328002929685	533.5787353515625	966.3941650390626	-580.8293457031248	552.6846313476562	898.9495239257814	-530.0695190429685	516.2966918945312	887.8421630859376	-599.1660156249998	581.5407104492188	817.9285278320314	-578.4611816406248	460.6503295898438	1085.907348632812	-117.2013931274412	328.4417114257812	1059.333374023438	-286.8285217285154	454.8726806640625	1079.271850585938	-459.3219909667966	405.4950561523438	939.04931640625	-103.6653900146482	430.7161560058594	656.051025390625	-133.8494262695311	487.8692932128906	669.5259399414062	-127.62296295166	488.3118896484375	569.340576171875	-167.7906646728514	424.37744140625	577.12548828125	-157.9203491210936	402.0741882324219	346.4122009277344	-166.4745178222655	456.8266906738281	325.4167785644532	-182.3967895507812	450.27001953125	242.2644195556641	-205.1359558105468	386.904296875	249.3640136718751	-194.2191772460937	339.7336120605469	49.71456527709967	-288.0008544921875	498.1500244140625	18.86404418945317	-193.7801818847656	560.8123168945312	29.87904739379889	-292.9998168945312	420.1476745605469	962.2824707031251	-466.8467102050779	579.0895385742188	689.6970214843751	-465.980255126953	523.2177124023438	698.8639526367189	-483.5046081542967	528.6644897460938	592.9725952148439	-465.4398803710936	591.0271606445312	608.5986938476564	-453.1357116699218	445.7627258300781	366.7117309570314	-453.0561523437499	389.0503845214844	388.9870910644532	-456.248809814453	329.9859313964844	326.1831970214845	-439.2734374999999	381.4800720214844	288.8861389160157	-429.9436340332031	177.7434844970703	218.0780792236329	-365.2985229492187	287.1150512695312	77.61116027832041	-425.4522399902344	317.1147766113281	70.18147277832038	-330.1563720703125	
90	0.356	590.1660766601562	1748.598266601562	-256.823577880859	533.8718872070312	1690.128051757812	-183.1035308837887	529.6178588867188	1707.644653320312	-330.3385925292965	395.6863708496094	1531.04150390625	-276.7092895507809	319.6075439453125	1335.15185546875	-215.5765533447263	320.710205078125	1342.725830078125	-357.3649597167966	570.0384521484375	1366.764892578125	-278.1847839355466	470.2978820800781	1476.450927734375	-104.563682556152	422.952392578125	1315.520751953125	-18.5892505645749	479.7951049804688	1227.026733398438	-17.61015701293918	358.483154296875	1234.632202148438	-12.44850254058811	403.571533203125	1125.310424804688	-8.269728660583246	377.4193420410156	1125.279174804688	-91.69628143310521	517.600341796875	949.7119750976562	-27.30701637268045	562.3828125	893.1375732421875	-71.39351654052714	496.1744995117188	859.7168579101562	-38.67803192138653	573.314697265625	802.00146484375	-26.32937812805158	478.0834350585938	1490.653930664062	-443.5612792968747	450.462646484375	1329.2890625	-548.4296264648434	508.8569030761719	1246.024291992188	-553.0120849609373	387.7651672363281	1255.1826171875	-575.4130249023435	444.0941772460938	1148.480346679688	-587.7946166992185	391.9550476074219	1143.395629882813	-531.1140136718748	537.80224609375	966.6433105468751	-581.3551635742185	557.0459594726562	899.1350097656251	-530.5216064453123	520.2821044921875	887.9940795898439	-599.4151611328123	585.5508422851562	817.9991455078126	-578.9080810546873	466.0875854492188	1085.648559570312	-116.9968338012693	333.8555603027344	1059.799072265625	-286.4565124511716	460.1687316894531	1079.970947265625	-459.0025939941404	410.4689636230469	939.3895263671875	-103.5706405639646	433.2110290527344	656.4309692382812	-133.2964477539061	490.3923034667969	669.50146484375	-127.3340988159178	490.1626892089844	569.27734375	-167.3385314941405	426.2588500976562	577.6412353515625	-157.5334320068358	402.6405334472656	347.3812866210938	-166.6783294677734	457.3136596679688	325.7030639648438	-182.2912292480468	450.6844787597656	242.6428527832032	-205.0824584960937	387.25048828125	249.9143981933594	-194.4177856445312	339.9310913085938	50.26510620117194	-288.2327575683594	498.1474914550781	18.88487815856938	-193.8717193603516	561.0604248046875	29.93385505676276	-292.8807678222656	425.9886169433594	963.1037597656251	-466.8619995117185	587.0615234375	691.4101562500001	-465.6696472167967	531.1640625	699.9221191406251	-483.2872619628905	537.8374633789062	594.0045166015626	-465.164581298828	599.4852294921875	610.2115478515626	-452.6893005371093	457.2683410644531	366.4934997558595	-452.5744628906249	400.1395263671875	387.742401123047	-456.134307861328	341.9247436523438	324.1617126464845	-439.1854858398437	394.2287902832031	287.5956420898439	-429.5251770019531	191.3403930664062	213.1152343750001	-364.9409179687499	304.3878173828125	74.87376403808604	-425.7993774414062	334.72802734375	68.57695007324226	-330.0162048339844	
91	0.36	595.8453369140625	1748.787963867188	-257.1540832519527	539.507080078125	1690.470703125	-183.2439117431637	535.2844848632812	1707.772827148438	-330.597015380859	401.2726135253906	1531.407348632812	-276.6463012695309	325.396484375	1335.551635742188	-215.0711517333982	326.2303466796875	1343.496704101562	-357.3728332519528	575.53759765625	1367.023559570312	-278.8131103515622	476.1741027832031	1476.84130859375	-104.578804016113	429.0950927734375	1315.957153320312	-18.37210845947236	486.0455932617188	1227.53515625	-17.58451461791965	364.7395629882812	1234.975219726562	-12.1419258117673	409.1907958984375	1125.856689453125	-8.13282299041723	383.6363220214844	1125.616821289062	-91.59233856201146	524.705810546875	950.7380981445312	-27.55989837646463	569.5961303710938	894.3289794921875	-72.19721221923808	503.6465148925781	860.467041015625	-39.28731918334942	581.1448974609375	803.2316284179688	-26.99395370483381	483.5372314453125	1490.770751953125	-443.6749267578122	455.5349731445312	1329.56640625	-548.4156494140622	513.5343627929688	1246.343017578125	-553.3016357421873	392.4132080078125	1255.74560546875	-575.5436401367185	448.7304992675781	1148.9794921875	-588.027648925781	396.5033874511719	1143.977172851563	-531.300842285156	542.2046508789062	966.9605102539064	-581.6669311523435	561.3512573242188	899.1602172851564	-530.8261718749998	524.6621704101562	888.2880249023439	-599.694885253906	589.5319213867188	818.0836791992189	-579.2666015624998	471.3495178222656	1085.714965820312	-116.9704513549802	339.2861328125	1060.134399414062	-286.3615417480466	465.4283447265625	1080.595703125	-458.7583923339841	415.0209655761719	939.5143432617188	-102.856132507324	435.6730041503906	656.7819213867188	-133.0389709472655	492.9689636230469	669.5200805664062	-127.1392135620116	491.9688720703125	569.304443359375	-167.0131378173827	427.7847595214844	577.8701171875	-157.3034362792967	403.1448669433594	347.8569641113282	-166.7327728271484	457.8036499023438	326.1040954589844	-181.9583435058593	451.0728149414062	242.9082031250001	-204.9718475341796	387.5880737304688	250.4595336914063	-194.5280609130859	340.1004943847656	50.95489501953131	-288.7357482910156	498.0560607910156	18.85967636108403	-194.0755462646484	561.2830810546875	29.94454383850104	-292.7995910644531	431.5024719238281	963.6785888671876	-467.0058593749998	594.901123046875	692.7302856445314	-465.3219299316405	539.0034790039062	700.9655761718751	-483.1561584472655	546.3739624023438	595.1902465820314	-464.6622619628905	607.918701171875	611.6679687500001	-452.0453491210936	468.8551635742188	366.1099548339845	-451.7733154296874	411.4093322753906	386.4951782226564	-455.6573486328124	354.0819091796875	322.130584716797	-438.4944152832031	407.1109313964844	286.4739379882814	-429.1021118164062	205.1062316894531	207.9419097900391	-364.6315612792968	321.4681701660156	72.64616394042979	-425.8261108398438	351.2222595214844	67.60843658447273	-330.1441955566406	
92	0.364	601.4351806640625	1748.950317382812	-257.3772583007809	545.0379638671875	1690.684448242188	-183.6066436767574	541.0771484375	1707.905029296875	-330.9041748046871	406.8934631347656	1531.7099609375	-276.6245117187497	330.9814147949219	1335.784423828125	-214.529373168945	331.5793151855469	1343.903198242188	-357.3937072753903	581.0849609375	1367.343139648438	-278.7457580566403	482.1068725585938	1477.196411132812	-104.5907211303708	435.2730712890625	1316.299194335938	-18.2806625366208	492.2480773925781	1227.929565429688	-17.48065376281711	371.1216125488281	1235.235717773438	-11.74530696868869	415.6377563476562	1126.042846679688	-7.903355598449457	389.7960510253906	1126.085327148438	-91.02979278564428	531.7794189453125	951.4005126953125	-27.98912239074686	576.715576171875	895.2706298828125	-73.12339782714824	511.1597900390625	861.0090942382812	-39.74300003051739	588.9912109375	804.3272705078125	-28.04541587829572	488.8599853515625	1490.902587890625	-443.7695922851559	460.1246948242188	1329.824096679688	-548.4823608398434	518.2889404296875	1246.577880859375	-553.570373535156	397.0180053710938	1255.966918945313	-575.3846435546873	453.0520629882812	1149.2734375	-588.3138427734373	400.9570617675781	1144.313110351563	-531.4386596679685	546.515625	967.2519531250001	-581.8884277343748	565.7451782226562	899.4791870117189	-531.2203369140623	528.7894287109375	888.5222167968751	-600.1249389648435	593.4443969726562	818.0482788085939	-579.4830322265623	476.2832946777344	1085.134521484375	-116.891777038574	344.5774841308594	1060.542724609375	-286.4035339355466	470.72314453125	1080.997314453125	-458.4717102050779	420.1244812011719	939.9462890625	-102.8360290527342	438.181640625	657.3164672851562	-132.7690429687499	495.6079711914062	669.4789428710938	-126.6505966186522	494.0735473632812	569.3634643554688	-166.6372833251952	429.6158752441406	578.322265625	-157.154342651367	403.5548095703125	347.7950439453126	-166.554962158203	458.3198852539062	326.3307495117188	-181.7188110351562	451.4208679199219	243.2509918212891	-204.8383331298828	387.7767028808594	250.6612701416016	-194.3808135986328	340.8924865722656	52.15095520019538	-288.5690307617188	498.0549621582031	18.82542991638188	-194.1879425048828	561.4630126953125	29.95129203796393	-292.7138671875	437.4065856933594	964.3562011718751	-466.9072570800779	602.5269775390625	694.3453369140626	-464.947296142578	546.505859375	702.0066528320314	-482.8326721191405	554.4139404296875	596.2770996093751	-464.1425781249999	616.3399658203125	613.3493652343751	-451.152130126953	480.2708740234375	365.7420959472657	-451.6755676269531	422.7950744628906	385.3035888671876	-455.3775939941405	366.5336608886719	319.9250793457032	-437.8970031738281	419.9009399414062	285.0959472656251	-428.6445312499999	218.9724273681641	202.686004638672	-364.2510986328124	338.5941772460938	70.91934967041026	-425.7046203613281	368.3460083007812	66.67665863037116	-329.6672973632812	
